<?xml version="1.0" standalone="no"?>
<!DOCTYPE svg PUBLIC "-//W3C//DTD SVG 20010904//EN"
 "http://www.w3.org/TR/2001/REC-SVG-20010904/DTD/svg10.dtd">
<svg version="1.0" xmlns="http://www.w3.org/2000/svg"
 width="321.000000pt" height="315.000000pt" viewBox="0 0 321.000000 315.000000"
 preserveAspectRatio="xMidYMid meet">

<g transform="translate(0.000000,315.000000) scale(0.100000,-0.100000)"
fill="#4f704f" stroke="none">
<path d="M1652 2798 c-29 -94 -115 -250 -221 -398 -63 -88 -123 -185 -140
-225 -77 -182 -49 -369 78 -528 53 -67 66 -79 183 -165 l77 -57 1 -491 c0
-516 0 -514 45 -514 45 0 45 -2 45 517 l0 492 68 51 c213 161 302 306 302 494
0 135 -35 224 -148 380 -147 202 -219 329 -253 444 -7 23 -15 42 -18 42 -3 0
-12 -19 -19 -42z m47 -266 c11 -21 48 -76 82 -123 150 -201 192 -280 210 -388
12 -73 -11 -178 -53 -249 -34 -56 -172 -192 -195 -192 -17 0 -15 -22 -22 254
-5 213 -8 240 -23 250 -13 8 -23 8 -35 0 -16 -10 -18 -36 -21 -268 -2 -183 -6
-256 -14 -256 -18 0 -115 79 -170 139 -90 98 -129 217 -108 333 16 84 60 168
177 333 55 77 108 155 117 173 9 17 21 32 26 32 5 0 18 -17 29 -38z"/>
<path d="M700 1766 c0 -3 7 -38 16 -78 11 -52 16 -140 18 -308 2 -224 4 -239
29 -315 68 -207 247 -381 462 -452 64 -21 101 -26 185 -27 l105 -1 8 60 c15
107 2 320 -26 415 -81 281 -237 456 -542 608 -144 71 -255 114 -255 98z m290
-228 c168 -76 326 -246 398 -428 44 -111 87 -350 64 -350 -5 0 -40 52 -77 117
-124 210 -235 325 -361 372 -77 29 -96 26 -43 -8 61 -38 169 -150 228 -236 60
-87 194 -325 187 -332 -3 -3 -38 3 -77 12 -219 54 -404 221 -471 425 -19 58
-21 86 -20 275 1 116 1 211 2 212 1 6 114 -33 170 -59z"/>
<path d="M2500 1721 c-219 -91 -343 -164 -435 -257 -113 -115 -182 -234 -227
-391 -19 -67 -23 -102 -23 -248 0 -93 4 -187 8 -209 l8 -39 92 6 c308 18 557
202 653 482 26 76 28 93 35 330 4 153 13 274 21 313 18 77 22 77 -132 13z m27
-344 c-3 -198 -5 -216 -29 -279 -14 -37 -41 -93 -59 -124 -43 -71 -159 -181
-236 -221 -63 -34 -229 -87 -244 -77 -17 10 131 274 214 382 54 69 148 159
200 191 21 13 36 25 34 27 -8 9 -107 -24 -153 -51 -99 -58 -187 -164 -306
-369 -67 -117 -76 -112 -59 30 35 300 202 540 456 655 71 32 165 60 178 52 4
-3 6 -100 4 -216z"/>
</g>
</svg>
